<?xml version="1.0" encoding="UTF-8" standalone="no"?>
<svg width="18px" height="13px" viewBox="0 0 18 13" version="1.1" xmlns="http://www.w3.org/2000/svg" xmlns:xlink="http://www.w3.org/1999/xlink" xmlns:sketch="http://www.bohemiancoding.com/sketch/ns">
    <!-- Generator: Sketch 3.4.1 (15681) - http://www.bohemiancoding.com/sketch -->
    <title>Shape</title>
    <desc>Created with Sketch.</desc>
    <defs></defs>
    <g id="Wee-3.0" stroke="none" stroke-width="1" fill="none" fill-rule="evenodd" sketch:type="MSPage">
        <g id="UI" sketch:type="MSArtboardGroup" transform="translate(-772.000000, -525.000000)" fill="#000000">
            <g id="Arrow-Down-Copy-5" sketch:type="MSLayerGroup" transform="translate(780.625000, 531.375000) rotate(-90.000000) translate(-780.625000, -531.375000) translate(773.625000, 522.375000)">
                <path d="M8,14.0059426 L8,1.875 C8,1.32271525 7.55228475,0.875 7,0.875 C6.44771525,0.875 6,1.32271525 6,1.875 L6,13.9804426 L2.41422888,9.6622976 C2.06140184,9.23740759 1.43093759,9.17898901 1.00604758,9.53181606 C0.581157573,9.8846431 0.522738996,10.5151073 0.875566041,10.9399974 L6.23066858,17.3888499 C6.43066281,17.6296918 6.71986198,17.7527864 7.01026175,17.7499791 C7.30085284,17.7527864 7.59024253,17.6296918 7.79036852,17.3888499 L13.148999,10.9399974 C13.5020585,10.5151073 13.4436014,9.8846431 13.0184315,9.53181606 C12.5932616,9.17898901 11.962382,9.23740759 11.6093225,9.6622976 L8,14.0059426 Z" id="Shape" sketch:type="MSShapeGroup"></path>
            </g>
        </g>
    </g>
</svg>