<?xml version="1.0" encoding="UTF-8" standalone="no"?>
<svg width="23px" height="27px" viewBox="0 0 23 27" version="1.1" xmlns="http://www.w3.org/2000/svg" xmlns:xlink="http://www.w3.org/1999/xlink" xmlns:sketch="http://www.bohemiancoding.com/sketch/ns">
    <!-- Generator: Sketch 3.4.1 (15681) - http://www.bohemiancoding.com/sketch -->
    <title>Shape</title>
    <desc>Created with Sketch.</desc>
    <defs></defs>
    <g id="Wee-3.0" stroke="none" stroke-width="1" fill="none" fill-rule="evenodd" sketch:type="MSPage">
        <g id="UI" sketch:type="MSArtboardGroup" transform="translate(-497.000000, -87.000000)" fill="#000000">
            <g id="Arrow-Down-Copy-10-+-Line-Copy-3" sketch:type="MSLayerGroup" transform="translate(496.000000, 87.000000)">
                <g id="Arrow-Down-Copy-10" transform="translate(0.989899, 0.000000)" sketch:type="MSShapeGroup">
                    <path d="M9.80348944,11.0072345 L9.80348944,2.19444444 C9.80348944,1.38647231 10.4530671,0.731481481 11.2543618,0.731481481 C12.0556565,0.731481481 12.7052342,1.38647231 12.7052342,2.19444444 L12.7052342,10.5778697 L14.5779145,8.3039117 C15.0898215,7.68231335 16.0045447,7.59684913 16.6210059,8.11302203 C17.237467,8.62919493 17.3222249,9.55154077 16.8103179,10.1731391 L12.3705635,15.5642433 C12.043187,15.96177 11.5510627,16.1400231 11.0775637,16.0818698 C10.6040646,16.1400231 10.1119403,15.96177 9.78456385,15.5642433 L5.34480942,10.1731391 C4.83290241,9.55154077 4.91766031,8.62919493 5.53412148,8.11302203 C6.15058266,7.59684913 7.0653058,7.68231335 7.57721281,8.3039117 L9.80348944,11.0072345 Z M1.08098299,26.0673401 L21.4277406,26.0673401 C22.0191724,26.0673401 22.4986226,25.4123492 22.4986226,24.6043771 C22.4986226,23.796405 22.0191724,23.1414141 21.4277406,23.1414141 L1.08098299,23.1414141 C0.489551204,23.1414141 0.0101010101,23.796405 0.0101010101,24.6043771 C0.0101010101,25.4123492 0.489551204,26.0673401 1.08098299,26.0673401 Z" id="Shape"></path>
                </g>
            </g>
        </g>
    </g>
</svg>