<?xml version="1.0" encoding="UTF-8" standalone="no"?>
<svg width="20px" height="16px" viewBox="0 0 20 16" version="1.1" xmlns="http://www.w3.org/2000/svg" xmlns:xlink="http://www.w3.org/1999/xlink" xmlns:sketch="http://www.bohemiancoding.com/sketch/ns">
    <!-- Generator: Sketch 3.4.1 (15681) - http://www.bohemiancoding.com/sketch -->
    <title>Shape</title>
    <desc>Created with Sketch.</desc>
    <defs></defs>
    <g id="Wee-3.0" stroke="none" stroke-width="1" fill="none" fill-rule="evenodd" sketch:type="MSPage">
        <g id="UI" sketch:type="MSArtboardGroup" transform="translate(-640.000000, -425.000000)" fill="#000000">
            <g id="Header/-Mobile-Dark" sketch:type="MSLayerGroup" transform="translate(262.000000, 408.000000)">
                <g id="Group-Copy-11" transform="translate(14.500000, 8.000000)" sketch:type="MSShapeGroup">
                    <g id="Line-+-Line-Copy-2-+-Line-Copy-4" transform="translate(363.000000, 9.000000)">
                        <path d="M1.5,2 L18.6172428,2 C19.1695276,2 19.6172428,1.55228475 19.6172428,1 C19.6172428,0.44771525 19.1695276,-2.22044605e-16 18.6172428,-2.22044605e-16 L1.5,-2.22044605e-16 C0.94771525,-2.22044605e-16 0.5,0.44771525 0.5,1 C0.5,1.55228475 0.94771525,2 1.5,2 Z M1.5,9 L18.6172428,9 C19.1695276,9 19.6172428,8.55228475 19.6172428,8 C19.6172428,7.44771525 19.1695276,7 18.6172428,7 L1.5,7 C0.94771525,7 0.5,7.44771525 0.5,8 C0.5,8.55228475 0.94771525,9 1.5,9 Z M1.5,16 L18.6172428,16 C19.1695276,16 19.6172428,15.5522847 19.6172428,15 C19.6172428,14.4477153 19.1695276,14 18.6172428,14 L1.5,14 C0.94771525,14 0.5,14.4477153 0.5,15 C0.5,15.5522847 0.94771525,16 1.5,16 Z" id="Shape"></path>
                    </g>
                </g>
            </g>
        </g>
    </g>
</svg>