<?xml version="1.0" encoding="UTF-8" standalone="no"?>
<svg width="20px" height="22px" viewBox="0 0 20 22" version="1.1" xmlns="http://www.w3.org/2000/svg" xmlns:xlink="http://www.w3.org/1999/xlink" xmlns:sketch="http://www.bohemiancoding.com/sketch/ns">
    <!-- Generator: Sketch 3.4.1 (15681) - http://www.bohemiancoding.com/sketch -->
    <title>Shape</title>
    <desc>Created with Sketch.</desc>
    <defs></defs>
    <g id="Wee-3.0" stroke="none" stroke-width="1" fill="none" fill-rule="evenodd" sketch:type="MSPage">
        <g id="UI" sketch:type="MSArtboardGroup" transform="translate(-973.000000, -238.000000)" fill="#000000">
            <g id="Light-+-Bg-+-Knob" sketch:type="MSLayerGroup" transform="translate(972.500000, 237.000000)">
                <g id="Light" transform="translate(0.000000, 1.000000)" sketch:type="MSShapeGroup">
                    <g id="sun">
                        <path d="M10.4893491,15.0796906 L10.4893491,15.0796906 C12.9355566,15.0796906 14.9018397,13.1949757 14.9018397,10.891729 C14.9018397,8.58848219 12.9355566,6.70376736 10.4893491,6.70376736 C8.04314164,6.70376736 6.07685853,8.58848219 6.07685853,10.891729 C6.07685853,13.1949757 8.04314164,15.0796906 10.4893491,15.0796906 L10.4893491,15.0796906 Z M10.4893491,16.0796906 C7.50011311,16.0796906 5.07685853,13.756961 5.07685853,10.891729 C5.07685853,8.02649688 7.50011311,5.70376736 10.4893491,5.70376736 C13.4785851,5.70376736 15.9018397,8.02649688 15.9018397,10.891729 C15.9018397,13.756961 13.4785851,16.0796906 10.4893491,16.0796906 Z M10.7380648,1.40574484 C10.7380648,1.56965543 10.6098243,1.69391482 10.4542694,1.69391482 C10.3033816,1.69391482 10.170474,1.56582815 10.170474,1.40574484 L10.170474,3.68164573 C10.170474,3.51773513 10.2987145,3.39347574 10.4542694,3.39347574 C10.6051572,3.39347574 10.7380648,3.52156241 10.7380648,3.68164573 L10.7380648,1.40574484 Z M9.73806482,1.40574484 L9.73806482,3.68164573 C9.73806482,4.08228288 10.0609703,4.39347574 10.4542694,4.39347574 C10.8440652,4.39347574 11.170474,4.07720002 11.170474,3.68164573 L11.170474,1.40574484 C11.170474,1.00510768 10.8475685,0.693914818 10.4542694,0.693914818 C10.0644736,0.693914818 9.73806482,1.01019054 9.73806482,1.40574484 L9.73806482,1.40574484 Z M16.3635884,3.3904844 C16.2672442,3.52309086 16.0904576,3.54824095 15.9646111,3.45680805 C15.8425402,3.3681184 15.8103032,3.186373 15.9043978,3.05686288 L14.5666568,4.89810537 C14.6630011,4.76549892 14.8397876,4.74034882 14.9656342,4.83178172 C15.087705,4.92047137 15.1199421,5.10221678 15.0258475,5.2317269 L16.3635884,3.3904844 L16.3635884,3.3904844 Z M15.5545714,2.80269915 L14.2168305,4.64394164 C13.9813418,4.96806391 14.0596633,5.40962331 14.377849,5.64079872 C14.6932004,5.86991497 15.1431728,5.80590077 15.3756738,5.48589063 L16.7134148,3.64464813 C16.9489034,3.32052586 16.870582,2.87896646 16.5523963,2.64779106 C16.2370448,2.41867481 15.7870724,2.482689 15.5545714,2.80269915 L15.5545714,2.80269915 Z M19.731953,8.25297851 C19.5760648,8.30362967 19.4182586,8.22006399 19.3701895,8.07212245 C19.3235626,7.92861958 19.4043095,7.76263601 19.5565578,7.71316755 L17.3920474,8.4164596 C17.5479357,8.36580844 17.7057419,8.44937412 17.753811,8.59731566 C17.8004379,8.74081852 17.7196909,8.9068021 17.5674427,8.95627056 L19.731953,8.25297851 L19.731953,8.25297851 Z M19.422936,7.30192199 L17.2584257,8.00521405 C16.8773971,8.12901774 16.6812184,8.53228299 16.8027545,8.90633265 C16.923208,9.27705053 17.32487,9.48974911 17.7010644,9.36751611 L19.8655748,8.66422406 C20.2466034,8.54042037 20.4427821,8.13715512 20.321246,7.76310545 C20.2007925,7.39238758 19.7991305,7.17968899 19.422936,7.30192199 L19.422936,7.30192199 Z M19.5565578,14.1359197 C19.4006696,14.0852685 19.3221204,13.9249063 19.3701895,13.7769648 C19.4168164,13.6334619 19.5797048,13.5466403 19.731953,13.5961087 L17.5674427,12.8928167 C17.7233309,12.9434678 17.8018801,13.10383 17.753811,13.2517716 C17.7071841,13.3952744 17.5442957,13.4820961 17.3920474,13.4326276 L19.5565578,14.1359197 L19.5565578,14.1359197 Z M19.8655748,13.1848632 L17.7010644,12.4815711 C17.3200359,12.3577674 16.9242906,12.5687049 16.8027545,12.9427546 C16.6823009,13.3134725 16.8822312,13.7216402 17.2584257,13.8438732 L19.422936,14.5471652 C19.8039646,14.6709689 20.1997099,14.4600314 20.321246,14.0859818 C20.4416995,13.7152639 20.2417693,13.3070962 19.8655748,13.1848632 L19.8655748,13.1848632 Z M15.9043978,18.7922244 C15.8080536,18.6596179 15.8387645,18.4837121 15.9646111,18.3922792 C16.0866819,18.3035895 16.2694938,18.3290927 16.3635884,18.4586028 L15.0258475,16.6173603 C15.1221917,16.7499668 15.0914808,16.9258726 14.9656342,17.0173055 C14.8435634,17.1059952 14.6607514,17.080492 14.5666568,16.9509819 L15.9043978,18.7922244 L15.9043978,18.7922244 Z M16.7134148,18.2044391 L15.3756738,16.3631966 C15.1401852,16.0390743 14.6960346,15.9771131 14.377849,16.2082885 C14.0624975,16.4374048 13.9843295,16.8851354 14.2168305,17.2051456 L15.5545714,19.0463881 C15.7900601,19.3705104 16.2342107,19.4324716 16.5523963,19.2012962 C16.8677478,18.9721799 16.9459158,18.5244493 16.7134148,18.2044391 L16.7134148,18.2044391 Z M10.170474,20.4433424 C10.170474,20.2794318 10.2987145,20.1551724 10.4542694,20.1551724 C10.6051572,20.1551724 10.7380648,20.2832591 10.7380648,20.4433424 L10.7380648,18.1674415 C10.7380648,18.3313521 10.6098243,18.4556115 10.4542694,18.4556115 C10.3033816,18.4556115 10.170474,18.3275248 10.170474,18.1674415 L10.170474,20.4433424 L10.170474,20.4433424 Z M11.170474,20.4433424 L11.170474,18.1674415 C11.170474,17.7668043 10.8475685,17.4556115 10.4542694,17.4556115 C10.0644736,17.4556115 9.73806482,17.7718872 9.73806482,18.1674415 L9.73806482,20.4433424 C9.73806482,20.8439796 10.0609703,21.1551724 10.4542694,21.1551724 C10.8440652,21.1551724 11.170474,20.8388967 11.170474,20.4433424 L11.170474,20.4433424 Z M4.54495036,18.4586028 C4.64129459,18.3259964 4.81808115,18.3008463 4.94392774,18.3922792 C5.06599857,18.4809688 5.0982356,18.6627142 5.00414099,18.7922244 L6.34188197,16.9509819 C6.24553774,17.0835883 6.06875118,17.1087384 5.94290459,17.0173055 C5.82083376,16.9286159 5.78859673,16.7468705 5.88269134,16.6173603 L4.54495036,18.4586028 L4.54495036,18.4586028 Z M5.35396736,19.0463881 L6.69170834,17.2051456 C6.92719695,16.8810233 6.84887549,16.4394639 6.53068984,16.2082885 C6.21533838,15.9791723 5.76536596,16.0431865 5.53286498,16.3631966 L4.195124,18.2044391 C3.95963539,18.5285614 4.03795684,18.9701208 4.35614249,19.2012962 C4.67149395,19.4304124 5.12146638,19.3663982 5.35396736,19.0463881 L5.35396736,19.0463881 Z M1.17658576,13.5961087 C1.33247401,13.5454576 1.49028019,13.6290232 1.53834931,13.7769648 C1.58497622,13.9204676 1.50422926,14.0864512 1.35198098,14.1359197 L3.51649135,13.4326276 C3.36060311,13.4832788 3.20279693,13.3997131 3.1547278,13.2517716 C3.1081009,13.1082687 3.18884786,12.9422851 3.34109614,12.8928167 L1.17658576,13.5961087 L1.17658576,13.5961087 Z M1.48560276,14.5471652 L3.65011313,13.8438732 C4.03114171,13.7200695 4.22732042,13.3168042 4.10578432,12.9427546 C3.98533078,12.5720367 3.58366885,12.3593381 3.20747436,12.4815711 L1.04296398,13.1848632 C0.661935405,13.3086669 0.465756692,13.7119321 0.587292795,14.0859818 C0.707746336,14.4566997 1.10940827,14.6693982 1.48560276,14.5471652 L1.48560276,14.5471652 Z M1.35198098,7.71316755 C1.50786922,7.76381871 1.58641843,7.92418091 1.53834931,8.07212245 C1.4917224,8.21562531 1.32883404,8.30244697 1.17658576,8.25297851 L3.34109614,8.95627056 C3.1852079,8.9056194 3.10665868,8.7452572 3.1547278,8.59731566 C3.20135471,8.45381279 3.36424307,8.36699113 3.51649135,8.4164596 L1.35198098,7.71316755 L1.35198098,7.71316755 Z M1.04296398,8.66422406 L3.20747436,9.36751611 C3.58850294,9.4913198 3.98424822,9.28038232 4.10578432,8.90633265 C4.22623786,8.53561477 4.02630762,8.12744704 3.65011313,8.00521405 L1.48560276,7.30192199 C1.10457418,7.1781183 0.708828898,7.38905579 0.587292795,7.76310545 C0.466839254,8.13382333 0.666769495,8.54199106 1.04296398,8.66422406 L1.04296398,8.66422406 Z M5.00414099,3.05686288 C5.10048523,3.18946933 5.06977434,3.36537515 4.94392774,3.45680805 C4.82185692,3.5454977 4.63904497,3.51999452 4.54495036,3.3904844 L5.88269134,5.2317269 C5.78634711,5.09912044 5.817058,4.92321462 5.94290459,4.83178172 C6.06497542,4.74309207 6.24778736,4.76859525 6.34188197,4.89810537 L5.00414099,3.05686288 L5.00414099,3.05686288 Z M4.195124,3.64464813 L5.53286498,5.48589063 C5.76835359,5.81001289 6.2125042,5.87197412 6.53068984,5.64079872 C6.84604131,5.41168247 6.92420932,4.96395179 6.69170834,4.64394164 L5.35396736,2.80269915 C5.11847874,2.47857688 4.67432814,2.41661565 4.35614249,2.64779106 C4.04079103,2.87690731 3.96262302,3.32463798 4.195124,3.64464813 L4.195124,3.64464813 Z" id="Shape"></path>
                    </g>
                </g>
            </g>
        </g>
    </g>
</svg>