<?xml version="1.0" encoding="UTF-8" standalone="no"?>
<svg width="18px" height="17px" viewBox="0 0 18 17" version="1.1" xmlns="http://www.w3.org/2000/svg" xmlns:xlink="http://www.w3.org/1999/xlink" xmlns:sketch="http://www.bohemiancoding.com/sketch/ns">
    <!-- Generator: Sketch 3.4.1 (15681) - http://www.bohemiancoding.com/sketch -->
    <title>Shape</title>
    <desc>Created with Sketch.</desc>
    <defs></defs>
    <g id="Wee-3.0" stroke="none" stroke-width="1" fill="none" fill-rule="evenodd" sketch:type="MSPage">
        <g id="Wee-3.0-Documentaion-Dark-" sketch:type="MSArtboardGroup" transform="translate(-1301.000000, -31.000000)" fill="#000000">
            <g id="Header/-Desktop-Doc-Drk" sketch:type="MSLayerGroup">
                <g id="Group" sketch:type="MSShapeGroup">
                    <g id="Rectangle-61-Copy-2-+-Group-Copy-2-Copy-Copy">
                        <g transform="translate(1287.000000, 18.000000)">
                            <g id="Rectangle-61-Copy-4-+-Rectangle-61-Copy-3-+-Line-+-Oval-14">
                                <g id="Rectangle-61-Copy-3-+-Line-+-Oval-14" transform="translate(14.000000, 13.000000)">
                                    <g id="Line-+-Oval-14">
                                        <path d="M11.5198547,11.2819227 L16.7037785,16.4141445 C16.9000167,16.6084256 17.2165953,16.606839 17.4108764,16.4106007 C17.6051575,16.2143624 17.6035708,15.8977839 17.4073326,15.7035028 L12.1637099,10.5121775 C12.8987113,9.47827206 13.3304094,8.21734133 13.3304094,6.85620915 C13.3304094,3.34464366 10.4571087,0.5 6.91520468,0.5 C3.37330064,0.5 0.5,3.34464366 0.5,6.85620915 C0.5,10.3677746 3.37330064,13.2124183 6.91520468,13.2124183 C8.7214226,13.2124183 10.3537663,12.4726519 11.5198547,11.2819227 Z M6.91520468,12.2124183 C3.92335405,12.2124183 1.5,9.81323367 1.5,6.85620915 C1.5,3.89918463 3.92335405,1.5 6.91520468,1.5 C9.90705531,1.5 12.3304094,3.89918463 12.3304094,6.85620915 C12.3304094,9.81323367 9.90705531,12.2124183 6.91520468,12.2124183 L6.91520468,12.2124183 Z" id="Shape"></path>
                                    </g>
                                </g>
                            </g>
                        </g>
                    </g>
                </g>
            </g>
        </g>
    </g>
</svg>