<?xml version="1.0" encoding="UTF-8" standalone="no"?>
<svg width="36px" height="23px" viewBox="0 0 36 23" version="1.1" xmlns="http://www.w3.org/2000/svg" xmlns:xlink="http://www.w3.org/1999/xlink" xmlns:sketch="http://www.bohemiancoding.com/sketch/ns">
    <!-- Generator: Sketch 3.4.1 (15681) - http://www.bohemiancoding.com/sketch -->
    <title>Fill 1</title>
    <desc>Created with Sketch.</desc>
    <defs></defs>
    <g id="Wee-3.0" stroke="none" stroke-width="1" fill="none" fill-rule="evenodd" sketch:type="MSPage">
        <g id="UI" sketch:type="MSArtboardGroup" transform="translate(-959.000000, -323.000000)" fill="#000000">
            <g id="Imported-Layers-Copy-2" sketch:type="MSLayerGroup" transform="translate(959.000000, 323.000000)">
                <path d="M33.8013595,4.47426529 C34.2429191,4.06282963 35.5865366,2.81056623 34.8141965,1.33059492 C34.543605,0.811941355 34.0971162,0.42418731 33.5901788,0.267003792 C33.1478409,0.129598332 32.6795595,0.174098964 32.2714671,0.391917846 C30.7055132,1.22728059 29.390693,2.88135086 28.2310154,4.3407634 L27.8784423,4.7829071 C26.2499643,6.81510263 24.8155443,8.70416747 23.4934599,10.5586207 C23.2968077,10.8347328 23.1001554,11.1124063 22.9027248,11.3911208 C21.5269373,13.3348356 20.1039324,15.3446507 18.4463977,17.0395782 C18.0206637,17.4754762 17.6182789,17.7003215 17.5147641,17.6620666 C17.4991979,17.6360428 17.4857073,17.575928 17.511132,17.4359201 C17.61776,16.8496048 17.9363471,16.2841084 18.2448161,15.737089 C18.3197931,15.6043678 18.3937322,15.4726876 18.4642988,15.3423085 C18.7221778,14.8650327 18.9966608,14.3848943 19.2620636,13.9206304 C19.6800145,13.1888423 20.1124938,12.4320713 20.4956803,11.6602065 C20.7029695,11.2430456 20.9211549,10.8303088 21.1395998,10.4170514 C21.9301004,8.92146587 22.7475823,7.37513397 23.0347776,5.61488675 C23.1777267,4.73736552 22.9634328,3.87337664 22.4614247,3.30319603 C21.7874107,2.53731673 20.8272392,2.44154929 19.6076319,3.01797561 C18.9873211,3.31152363 18.3799821,3.70578362 17.8019594,4.19008582 C16.1804862,5.55060806 14.7196037,7.14274178 13.3069763,8.68230751 C12.8034116,9.23114863 12.2829836,9.79872687 11.7651499,10.3441849 C9.55112558,12.6777356 7.37004958,14.8928782 4.9528871,17.3396322 C4.66076249,17.6352621 4.36422747,17.6979794 4.23243414,17.6071565 C4.11776355,17.527784 4.08040481,17.2735319 4.25656166,16.8842164 C5.30208756,14.5756485 6.74403122,12.2829551 8.66463377,9.87549697 C9.29246818,9.08801795 9.94676503,8.41296158 10.6389395,7.69808885 C10.8288464,7.50212993 11.0210883,7.30382887 11.2148868,7.10084353 C11.3196988,6.99102326 11.4271052,6.88120298 11.5352899,6.770602 C12.3008846,5.98858797 13.0929419,5.17976946 13.3235802,4.0370661 C13.5326854,3.0013204 12.8838367,1.89765268 11.8769667,1.57651946 C10.584458,1.16482356 9.59263529,2.39678842 9.16975509,2.92298888 C6.64778057,6.06327616 3.46165065,10.2830291 1.19055046,15.0779071 C0.830713136,15.8380612 0.477361702,16.6624939 0.327148427,17.5389742 C0.0892458834,18.9239588 0.450380389,20.7297476 1.79321961,21.6416202 C1.85107377,21.6806558 1.91048455,21.7183903 1.9704142,21.7543031 C2.45737502,22.0460294 2.96976055,22.1917625 3.49485842,22.1917625 C4.09285772,22.1915023 4.70746092,22.00283 5.31946975,21.6260059 C7.16924635,20.4869459 8.27522077,19.2323404 9.55579542,17.7794338 C9.8847599,17.406253 10.2259179,17.0192797 10.5950949,16.6166921 C11.4180249,15.7201735 12.137959,14.9006853 12.834025,14.108522 C14.2251193,12.5252363 15.5394206,11.0293905 17.325376,9.33134012 C17.3308241,9.32613536 17.3386072,9.31884871 17.3476875,9.31026087 C17.3137014,9.49971385 17.200328,9.88018124 16.8537219,10.6122297 L16.8285566,10.6650579 C16.4910308,11.3986677 16.0992828,12.1252511 15.7205067,12.8278927 C14.724533,14.6740183 13.6948327,16.5831215 13.5274967,18.8279311 C13.4385102,20.0156556 13.8637253,21.0441146 14.694179,21.6499478 C15.5230761,22.2544798 16.6259373,22.3429606 17.7217938,21.89327 C20.5423788,20.7357331 22.3983818,18.2163727 24.193158,15.7800282 C24.5034432,15.3587035 24.8124311,14.9394607 25.1247917,14.5293262 C27.5772374,11.3086255 30.4727994,7.60960806 33.8013595,4.47426529" id="Fill-1" sketch:type="MSShapeGroup"></path>
            </g>
        </g>
    </g>
</svg>